# xmcd
#
# Track frame offsets: 
#        150
#        11924
#        23650
#        34721
#        46318
#        58467
#        72471
#        85348
#        97565
#        110478
#        121673
#        135124
#        148802
#        161498
#        172831
#        185848
#        196809
#        207805
#        218905
#        231675
#
# Disc length: 3257 seconds
#
# Revision: 0
# Processed by: cddbd v1.5.2PL0 Copyright (c) Steve Scherf et al.
# Submitted via: ExactAudioCopyFreeDBPlugin 1.0
#
DISCID=180cb714
DTITLE=Various Artist - The Very Best of Vee-Jay Rhythm and Blues [Coll
DTITLE=ectables box set]
DYEAR=2002
DGENRE=Rhythm and Blues
TTITLE0=The El Dorados - At My Front Door
TTITLE1=The Spaniels - Baby It's You
TTITLE2=The Rhythm Aces - I Wonder Why
TTITLE3=The Tommy Dean Orchestra - Evenin' Time
TTITLE4=The Spaniels - Goodnight, Sweetheart, Goodnight
TTITLE5=The Rhythm Aces - Whisper to Me
TTITLE6=The Kool Gents - This is the Night
TTITLE7=The Tommy Dean Orchestra - How Can I Let You Go
TTITLE8=Big Jay McNeely - Big Jay's Hop
TTITLE9=The El Dorados - I'll Be Forever Loving You
TTITLE10=The Dells - Dreams of Contentment
TTITLE11=Julian Dash - Rhythm Punch
TTITLE12=The Magnificents - Up on the Mountain
TTITLE13=The Spaniels - You Painted Pictures
TTITLE14=The Dells - Oh What a Night
TTITLE15=The Magnificents - Why Did She Go
TTITLE16=The El Dorados - A Love of My Own
TTITLE17=The Kool Gents - I Just Can't Help Myself
TTITLE18=The El Dorados - Bim Bam Booom
TTITLE19=The Tommy Dean Orchestra - Why Don't You
EXTD=
EXTT0=
EXTT1=
EXTT2=
EXTT3=
EXTT4=
EXTT5=
EXTT6=
EXTT7=
EXTT8=
EXTT9=
EXTT10=
EXTT11=
EXTT12=
EXTT13=
EXTT14=
EXTT15=
EXTT16=
EXTT17=
EXTT18=
EXTT19=
PLAYORDER=
